<svg width="35" height="35" viewBox="0 0 35 35" fill="none" xmlns="http://www.w3.org/2000/svg">
<path d="M13.7241 10.747C13.2142 9.04742 12.9593 8.19765 13.0719 7.51319C13.2296 6.55424 13.842 5.73109 14.7152 5.30449C15.3384 5 16.2256 5 18 5V5C19.7744 5 20.6616 5 21.2848 5.30449C22.158 5.73109 22.7704 6.55424 22.9281 7.51319C23.0407 8.19765 22.7858 9.04742 22.2759 10.747L19.9276 18.5747C19.7216 19.2613 19.6186 19.6046 19.3529 19.8023C19.0872 20 18.7248 20 18 20V20C17.2752 20 16.9128 20 16.6471 19.8023C16.3814 19.6046 16.2784 19.2613 16.0724 18.5747L13.7241 10.747Z" stroke="white" stroke-width="3"/>
<circle cx="18" cy="28" r="3" stroke="white" stroke-width="3"/>
</svg>
