<svg width="35" height="35" viewBox="0 0 35 35" fill="none" xmlns="http://www.w3.org/2000/svg">
<path d="M6.375 24.7916H13.125C14.4056 24.7916 15.0459 24.7916 15.5568 24.9839C16.3653 25.2882 17.0034 25.9264 17.3077 26.7349C17.5 27.2458 17.5 27.8861 17.5 29.1666V11.8333C17.5 9.00489 17.5 7.59067 16.6213 6.71199C15.7426 5.83331 14.3284 5.83331 11.5 5.83331H6.375C5.43219 5.83331 4.96079 5.83331 4.66789 6.12621C4.375 6.4191 4.375 6.8905 4.375 7.83332V22.7916C4.375 23.7345 4.375 24.2059 4.66789 24.4988C4.96079 24.7916 5.43219 24.7916 6.375 24.7916Z" stroke="white" stroke-width="3"/>
<path d="M28.625 24.7916H21.875C20.5944 24.7916 19.9541 24.7916 19.4432 24.9839C18.6347 25.2882 17.9966 25.9264 17.6923 26.7349C17.5 27.2458 17.5 27.8861 17.5 29.1666V11.8333C17.5 9.00489 17.5 7.59067 18.3787 6.71199C19.2574 5.83331 20.6716 5.83331 23.5 5.83331H28.625C29.5678 5.83331 30.0392 5.83331 30.3321 6.12621C30.625 6.4191 30.625 6.8905 30.625 7.83332V22.7916C30.625 23.7345 30.625 24.2059 30.3321 24.4988C30.0392 24.7916 29.5678 24.7916 28.625 24.7916Z" stroke="white" stroke-width="3"/>
</svg>
